<svg xmlns="http://www.w3.org/2000/svg" viewBox="0 0 720 1156" width="720" height="1156" font-family="Malgun Gothic, Segoe UI, sans-serif">
<style>
 .surface{fill:#fcfcfb} .grid{stroke:#e8e8e4;stroke-width:1} .axis{stroke:#b8b8b0;stroke-width:1}
 .tick{fill:#6b6b63;font-size:11px} .ttl{fill:#1a1a19;font-size:14.5px;font-weight:600}
 .sub{fill:#6b6b63;font-size:11.5px} .lbl{fill:#1a1a19;font-size:11.5px;font-weight:600}
 .cap{fill:#6b6b63;font-size:11.5px}
 .s1{stroke:#2563EB} .s2{stroke:#DC2626} .f1{fill:#2563EB} .f2{fill:#DC2626} .ring{stroke:#fcfcfb;stroke-width:2}
 @media (prefers-color-scheme: dark){
  .surface{fill:#1a1a19} .grid{stroke:#333330} .axis{stroke:#55554e} .tick{fill:#a3a39a}
  .ttl{fill:#ffffff} .sub{fill:#c3c2b7} .lbl{fill:#ffffff} .cap{fill:#c3c2b7}
  .s1{stroke:#3987e5} .s2{stroke:#e66767} .f1{fill:#3987e5} .f2{fill:#e66767} .ring{stroke:#1a1a19}
 }</style>
<rect class="surface" x="0" y="0" width="720" height="1156"/>
<text class="ttl" x="88" y="24" font-size="16">지그재그 기동 시나리오 — 60 s / 0.1 s (과제 명세 조건, 궤적 축소)</text>
<text class="cap" x="88" y="42">가로 세로 같은 축척. ● = 회전이 시작되는 지점, ⬤ 출발 / ■ 도착. 두 패널의 축척은 서로 다르다.</text>
<text class="ttl" x="88" y="76">대공 표적 — 왕복 훑기 (직진 구간 Lat 32.1105 / 32.0990 / 32.0874)</text>
<text class="sub" x="88" y="93">200 m/s · 고도 300 m · Yaw 180°(남) 출발 · 89.9° 선회 5회 + 마지막 149.8° (|G| 8.21, 반경 497 m) · 6기동 끝에서 종료</text>
<line class="grid" x1="195.5" y1="100" x2="195.5" y2="812.7"/>
<text class="tick" x="195.5" y="829.7" text-anchor="middle">125.990</text>
<line class="grid" x1="326.2" y1="100" x2="326.2" y2="812.7"/>
<text class="tick" x="326.2" y="829.7" text-anchor="middle">126.000</text>
<line class="grid" x1="456.9" y1="100" x2="456.9" y2="812.7"/>
<text class="tick" x="456.9" y="829.7" text-anchor="middle">126.010</text>
<line class="grid" x1="587.6" y1="100" x2="587.6" y2="812.7"/>
<text class="tick" x="587.6" y="829.7" text-anchor="middle">126.020</text>
<line class="grid" x1="88" y1="756.2" x2="688.0" y2="756.2"/>
<text class="tick" x="80" y="760.2" text-anchor="end">32.0800</text>
<line class="grid" x1="88" y1="602.6" x2="688.0" y2="602.6"/>
<text class="tick" x="80" y="606.6" text-anchor="end">32.0900</text>
<line class="grid" x1="88" y1="448.9" x2="688.0" y2="448.9"/>
<text class="tick" x="80" y="452.9" text-anchor="end">32.1000</text>
<line class="grid" x1="88" y1="295.2" x2="688.0" y2="295.2"/>
<text class="tick" x="80" y="299.2" text-anchor="end">32.1100</text>
<line class="grid" x1="88" y1="141.6" x2="688.0" y2="141.6"/>
<text class="tick" x="80" y="145.6" text-anchor="end">32.1200</text>
<rect class="axis" fill="none" x="88" y="100" width="600.0" height="712.7"/>
<path class="s2" fill="none" stroke-width="2" stroke-linejoin="round" d="M326.2,141.6 L326.2,144.3 L326.2,147.1 L326.2,149.9 L326.2,152.7 L326.2,155.4 L326.2,158.2 L326.2,161.0 L326.2,163.7 L326.2,166.5 L326.2,169.3 L326.2,172.1 L326.2,174.8 L326.2,177.6 L326.2,180.4 L326.2,183.1 L326.2,185.9 L326.2,188.7 L326.2,191.5 L326.2,194.2 L326.2,197.0 L326.2,199.8 L326.2,202.5 L326.2,205.3 L326.2,208.1 L326.2,210.9 L326.2,213.6 L326.2,216.4 L326.2,219.2 L326.2,221.9 L326.4,224.7 L326.7,227.5 L327.1,230.2 L327.6,232.9 L328.2,235.6 L328.9,238.3 L329.7,241.0 L330.6,243.6 L331.7,246.1 L332.8,248.7 L334.0,251.2 L335.4,253.6 L336.8,256.0 L338.3,258.3 L339.9,260.5 L341.6,262.7 L343.4,264.8 L345.3,266.9 L347.3,268.8 L349.3,270.7 L351.4,272.5 L353.6,274.2 L355.8,275.8 L358.2,277.4 L360.5,278.8 L362.9,280.1 L365.4,281.4 L367.9,282.5 L370.5,283.6 L373.1,284.5 L375.8,285.3 L378.4,286.0 L381.1,286.7 L383.9,287.2 L386.6,287.5 L389.4,287.8 L392.1,288.0 L394.9,288.1 L397.7,288.1 L400.4,288.1 L403.2,288.1 L406.0,288.1 L408.7,288.1 L411.5,288.1 L414.3,288.1 L417.1,288.1 L419.8,288.1 L422.6,288.1 L425.4,288.1 L428.1,288.1 L430.9,288.1 L433.7,288.1 L436.4,288.1 L439.2,288.1 L442.0,288.1 L444.7,288.2 L447.5,288.2 L450.3,288.2 L453.1,288.2 L455.8,288.2 L458.6,288.2 L461.4,288.2 L464.1,288.2 L466.9,288.2 L469.7,288.2 L472.4,288.2 L475.2,288.2 L478.0,288.2 L480.8,288.2 L483.5,288.2 L486.3,288.2 L489.1,288.2 L491.8,288.2 L494.6,288.2 L497.4,288.2 L500.1,288.2 L502.9,288.3 L505.7,288.3 L508.5,288.3 L511.2,288.3 L514.0,288.3 L516.8,288.3 L519.5,288.3 L522.3,288.3 L525.1,288.3 L527.8,288.3 L530.6,288.3 L533.4,288.3 L536.2,288.3 L538.9,288.3 L541.7,288.3 L544.5,288.3 L547.2,288.3 L550.0,288.3 L552.8,288.3 L555.5,288.3 L558.3,288.3 L561.1,288.4 L563.8,288.4 L566.6,288.4 L569.4,288.4 L572.2,288.4 L574.9,288.4 L577.7,288.4 L580.5,288.4 L583.2,288.6 L586.0,288.9 L588.7,289.3 L591.5,289.8 L594.2,290.4 L596.8,291.1 L599.5,292.0 L602.1,292.9 L604.6,293.9 L607.2,295.1 L609.6,296.3 L612.1,297.7 L614.4,299.1 L616.7,300.6 L619.0,302.2 L621.2,304.0 L623.3,305.8 L625.3,307.6 L627.3,309.6 L629.1,311.6 L630.9,313.7 L632.6,315.9 L634.3,318.2 L635.8,320.5 L637.2,322.9 L638.6,325.3 L639.8,327.8 L640.9,330.3 L642.0,332.9 L642.9,335.5 L643.7,338.1 L644.4,340.8 L645.0,343.5 L645.5,346.2 L645.9,349.0 L646.2,351.7 L646.4,354.5 L646.4,357.3 L646.4,360.0 L646.4,362.8 L646.4,365.6 L646.4,368.4 L646.4,371.1 L646.4,373.9 L646.4,376.7 L646.4,379.4 L646.4,382.2 L646.4,385.0 L646.4,387.8 L646.4,390.5 L646.4,393.3 L646.4,396.1 L646.4,398.8 L646.2,401.6 L645.9,404.4 L645.5,407.1 L645.0,409.8 L644.4,412.5 L643.7,415.2 L642.9,417.9 L642.0,420.5 L640.9,423.0 L639.8,425.6 L638.6,428.1 L637.2,430.5 L635.8,432.9 L634.3,435.2 L632.6,437.4 L630.9,439.6 L629.1,441.7 L627.3,443.8 L625.3,445.7 L623.3,447.6 L621.2,449.4 L619.0,451.1 L616.8,452.7 L614.4,454.3 L612.1,455.7 L609.7,457.0 L607.2,458.3 L604.7,459.4 L602.1,460.5 L599.5,461.4 L596.8,462.2 L594.2,462.9 L591.5,463.6 L588.7,464.1 L586.0,464.4 L583.2,464.7 L580.5,464.9 L577.7,465.0 L574.9,465.0 L572.2,465.0 L569.4,465.0 L566.6,465.0 L563.9,465.0 L561.1,465.0 L558.3,465.0 L555.5,465.0 L552.8,465.0 L550.0,465.0 L547.2,465.0 L544.5,465.0 L541.7,465.0 L538.9,465.0 L536.2,465.0 L533.4,465.0 L530.6,465.0 L527.9,465.1 L525.1,465.1 L522.3,465.1 L519.5,465.1 L516.8,465.1 L514.0,465.1 L511.2,465.1 L508.5,465.1 L505.7,465.1 L502.9,465.1 L500.2,465.1 L497.4,465.1 L494.6,465.1 L491.9,465.1 L489.1,465.1 L486.3,465.1 L483.5,465.1 L480.8,465.1 L478.0,465.1 L475.2,465.1 L472.5,465.1 L469.7,465.2 L466.9,465.2 L464.2,465.2 L461.4,465.2 L458.6,465.2 L455.9,465.2 L453.1,465.2 L450.3,465.2 L447.5,465.2 L444.8,465.2 L442.0,465.2 L439.2,465.2 L436.5,465.2 L433.7,465.2 L430.9,465.2 L428.2,465.2 L425.4,465.2 L422.6,465.2 L419.8,465.2 L417.1,465.2 L414.3,465.2 L411.5,465.3 L408.8,465.3 L406.0,465.3 L403.2,465.3 L400.5,465.3 L397.7,465.3 L394.9,465.3 L392.2,465.3 L389.4,465.3 L386.6,465.3 L383.8,465.3 L381.1,465.3 L378.3,465.3 L375.5,465.3 L372.8,465.3 L370.0,465.3 L367.2,465.3 L364.5,465.3 L361.7,465.3 L358.9,465.3 L356.2,465.4 L353.4,465.4 L350.6,465.4 L347.8,465.4 L345.1,465.4 L342.3,465.4 L339.5,465.4 L336.8,465.4 L334.0,465.4 L331.2,465.4 L328.5,465.4 L325.7,465.4 L322.9,465.4 L320.1,465.4 L317.4,465.4 L314.6,465.4 L311.8,465.4 L309.1,465.4 L306.3,465.4 L303.5,465.4 L300.8,465.4 L298.0,465.5 L295.2,465.5 L292.5,465.5 L289.7,465.5 L286.9,465.5 L284.1,465.5 L281.4,465.5 L278.6,465.5 L275.8,465.5 L273.1,465.5 L270.3,465.5 L267.5,465.5 L264.8,465.5 L262.0,465.5 L259.2,465.5 L256.5,465.5 L253.7,465.5 L250.9,465.5 L248.1,465.5 L245.4,465.5 L242.6,465.5 L239.8,465.6 L237.1,465.6 L234.3,465.6 L231.5,465.6 L228.8,465.6 L226.0,465.6 L223.2,465.6 L220.4,465.6 L217.7,465.6 L214.9,465.6 L212.1,465.6 L209.4,465.6 L206.6,465.6 L203.8,465.6 L201.1,465.6 L198.3,465.6 L195.5,465.7 L192.8,465.9 L190.0,466.1 L187.3,466.5 L184.5,467.0 L181.8,467.7 L179.2,468.4 L176.5,469.2 L173.9,470.1 L171.3,471.2 L168.8,472.3 L166.3,473.6 L163.9,474.9 L161.6,476.3 L159.2,477.9 L157.0,479.5 L154.8,481.2 L152.7,483.0 L150.7,484.9 L148.7,486.8 L146.8,488.9 L145.1,491.0 L143.4,493.2 L141.7,495.4 L140.2,497.7 L138.8,500.1 L137.4,502.5 L136.2,505.0 L135.1,507.5 L134.0,510.1 L133.1,512.7 L132.3,515.4 L131.6,518.0 L131.0,520.8 L130.5,523.5 L130.1,526.2 L129.8,529.0 L129.6,531.7 L129.6,534.5 L129.6,537.3 L129.6,540.1 L129.6,542.8 L129.6,545.6 L129.6,548.4 L129.6,551.1 L129.6,553.9 L129.6,556.7 L129.6,559.5 L129.6,562.2 L129.6,565.0 L129.6,567.8 L129.6,570.5 L129.6,573.3 L129.6,576.1 L129.8,578.9 L130.1,581.6 L130.5,584.4 L131.0,587.1 L131.6,589.8 L132.3,592.5 L133.1,595.1 L134.0,597.7 L135.1,600.3 L136.2,602.8 L137.4,605.3 L138.8,607.7 L140.2,610.1 L141.7,612.4 L143.3,614.7 L145.1,616.8 L146.8,619.0 L148.7,621.0 L150.7,623.0 L152.7,624.8 L154.8,626.6 L157.0,628.3 L159.2,630.0 L161.6,631.5 L163.9,632.9 L166.3,634.3 L168.8,635.5 L171.3,636.7 L173.9,637.7 L176.5,638.6 L179.2,639.5 L181.8,640.2 L184.5,640.8 L187.3,641.3 L190.0,641.7 L192.8,642.0 L195.5,642.1 L198.3,642.2 L201.1,642.2 L203.8,642.2 L206.6,642.2 L209.4,642.2 L212.1,642.2 L214.9,642.2 L217.7,642.2 L220.4,642.2 L223.2,642.3 L226.0,642.3 L228.7,642.3 L231.5,642.3 L234.3,642.3 L237.1,642.3 L239.8,642.3 L242.6,642.3 L245.4,642.3 L248.1,642.3 L250.9,642.3 L253.7,642.3 L256.4,642.3 L259.2,642.3 L262.0,642.3 L264.7,642.3 L267.5,642.3 L270.3,642.3 L273.1,642.3 L275.8,642.3 L278.6,642.3 L281.4,642.4 L284.1,642.4 L286.9,642.4 L289.7,642.4 L292.4,642.4 L295.2,642.4 L298.0,642.4 L300.7,642.4 L303.5,642.4 L306.3,642.4 L309.0,642.4 L311.8,642.4 L314.6,642.4 L317.4,642.4 L320.1,642.4 L322.9,642.4 L325.7,642.4 L328.4,642.4 L331.2,642.4 L334.0,642.4 L336.7,642.4 L339.5,642.5 L342.3,642.5 L345.0,642.5 L347.8,642.5 L350.6,642.5 L353.4,642.5 L356.1,642.5 L358.9,642.5 L361.7,642.5 L364.4,642.5 L367.2,642.5 L370.0,642.5 L372.7,642.5 L375.5,642.5 L378.3,642.5 L381.0,642.5 L383.8,642.5 L386.6,642.5 L389.4,642.5 L392.1,642.5 L394.9,642.6 L397.7,642.6 L400.4,642.6 L403.2,642.6 L406.0,642.6 L408.7,642.6 L411.5,642.6 L414.3,642.6 L417.0,642.6 L419.8,642.6 L422.6,642.6 L425.4,642.7 L428.1,642.8 L430.9,643.1 L433.6,643.5 L436.3,644.0 L439.0,644.6 L441.7,645.3 L444.3,646.2 L447.0,647.1 L449.5,648.1 L452.0,649.3 L454.5,650.5 L456.9,651.9 L459.3,653.3 L461.6,654.8 L463.9,656.5 L466.0,658.2 L468.2,660.0 L470.2,661.8 L472.1,663.8 L474.0,665.8 L475.8,668.0 L477.5,670.1 L479.1,672.4 L480.7,674.7 L482.1,677.1 L483.4,679.5 L484.7,682.0 L485.8,684.5 L486.8,687.1 L487.8,689.7 L488.6,692.3 L489.3,695.0 L489.9,697.7 L490.4,700.5 L490.8,703.2 L491.1,706.0 L491.2,708.7 L491.3,711.5 L491.2,714.3 L491.1,717.0 L490.8,719.8 L490.4,722.5 L489.9,725.3 L489.3,728.0 L488.6,730.6 L487.8,733.3 L486.8,735.9 L485.8,738.5 L484.7,741.0 L483.4,743.5 L482.1,745.9 L480.7,748.3 L479.1,750.6 L477.5,752.8 L475.8,755.0 L474.0,757.1 L472.1,759.2 L470.2,761.1 L468.2,763.0 L466.0,764.8 L463.9,766.5 L461.6,768.1 L459.3,769.7 L456.9,771.1"/>
<circle class="f2 ring" cx="326.2" cy="219.2" r="4.5"/>
<text class="lbl" x="338.2" y="235.2">1</text>
<circle class="f2 ring" cx="577.7" cy="288.4" r="4.5"/>
<text class="lbl" x="587.7" y="279.4">2</text>
<circle class="f2 ring" cx="646.4" cy="396.1" r="4.5"/>
<text class="lbl" x="626.4" y="412.1">3</text>
<circle class="f2 ring" cx="198.3" cy="465.6" r="4.5"/>
<text class="lbl" x="176.3" y="456.6">4</text>
<circle class="f2 ring" cx="129.6" cy="573.3" r="4.5"/>
<text class="lbl" x="139.6" y="589.3">5</text>
<circle class="f2 ring" cx="422.6" cy="642.6" r="4.5"/>
<text class="lbl" x="432.6" y="658.6">6</text>
<circle class="f2 ring" cx="326.2" cy="141.6" r="6.5"/>
<rect class="f2 ring" x="451.4" y="765.6" width="11" height="11"/>
<line class="axis" x1="537.4" y1="800.7" x2="676.0" y2="800.7" stroke-width="2"/>
<line class="axis" x1="537.4" y1="797.7" x2="537.4" y2="803.7"/>
<line class="axis" x1="676.0" y1="797.7" x2="676.0" y2="803.7"/>
<text class="tick" x="606.7" y="794.7" text-anchor="middle">1000 m</text>
<text class="ttl" x="88" y="912.6840574716005">대함 표적 — 좌우 대칭 지그재그 (양쪽 상단 직진 0.00252° 씩)</text>
<text class="sub" x="88" y="929.6840574716005">30 m/s · 고도 0 m · Yaw 270°(서) 출발 · 44.95° 선회 4회 (|G| 1.00, 반경 92 m)</text>
<line class="grid" x1="207.3" y1="936.6840574716005" x2="207.3" y2="1064.5"/>
<text class="tick" x="207.3" y="1081.5" text-anchor="middle">126.015</text>
<line class="grid" x1="355.0" y1="936.6840574716005" x2="355.0" y2="1064.5"/>
<text class="tick" x="355.0" y="1081.5" text-anchor="middle">126.020</text>
<line class="grid" x1="502.7" y1="936.6840574716005" x2="502.7" y2="1064.5"/>
<text class="tick" x="502.7" y="1081.5" text-anchor="middle">126.025</text>
<line class="grid" x1="650.4" y1="936.6840574716005" x2="650.4" y2="1064.5"/>
<text class="tick" x="650.4" y="1081.5" text-anchor="middle">126.030</text>
<line class="grid" x1="88" y1="1043.7" x2="688.0" y2="1043.7"/>
<text class="tick" x="80" y="1047.7" text-anchor="end">32.1230</text>
<line class="grid" x1="88" y1="1009.0" x2="688.0" y2="1009.0"/>
<text class="tick" x="80" y="1013.0" text-anchor="end">32.1240</text>
<line class="grid" x1="88" y1="974.3" x2="688.0" y2="974.3"/>
<text class="tick" x="80" y="978.3" text-anchor="end">32.1250</text>
<line class="grid" x1="88" y1="939.5" x2="688.0" y2="939.5"/>
<text class="tick" x="80" y="943.5" text-anchor="end">32.1260</text>
<rect class="axis" fill="none" x="88" y="936.6840574716005" width="600.0" height="127.8"/>
<path class="s1" fill="none" stroke-width="2" stroke-linejoin="round" d="M650.4,974.3 L649.5,974.3 L648.5,974.3 L647.6,974.3 L646.7,974.3 L645.7,974.3 L644.8,974.3 L643.8,974.3 L642.9,974.3 L642.0,974.3 L641.0,974.3 L640.1,974.3 L639.2,974.3 L638.2,974.3 L637.3,974.3 L636.3,974.3 L635.4,974.3 L634.5,974.3 L633.5,974.3 L632.6,974.3 L631.6,974.3 L630.7,974.3 L629.8,974.3 L628.8,974.3 L627.9,974.3 L626.9,974.3 L626.0,974.3 L625.1,974.3 L624.1,974.3 L623.2,974.3 L622.2,974.3 L621.3,974.3 L620.4,974.3 L619.4,974.3 L618.5,974.3 L617.6,974.3 L616.6,974.3 L615.7,974.3 L614.7,974.3 L613.8,974.3 L612.9,974.3 L611.9,974.3 L611.0,974.3 L610.0,974.3 L609.1,974.3 L608.2,974.3 L607.2,974.3 L606.3,974.3 L605.3,974.3 L604.4,974.3 L603.5,974.3 L602.5,974.3 L601.6,974.3 L600.6,974.3 L599.7,974.3 L598.8,974.3 L597.8,974.3 L596.9,974.3 L596.0,974.3 L595.0,974.3 L594.1,974.3 L593.1,974.3 L592.2,974.3 L591.3,974.3 L590.3,974.3 L589.4,974.3 L588.4,974.3 L587.5,974.3 L586.6,974.3 L585.6,974.3 L584.7,974.3 L583.7,974.3 L582.8,974.3 L581.9,974.3 L580.9,974.3 L580.0,974.3 L579.0,974.3 L578.1,974.3 L577.2,974.3 L576.2,974.3 L575.3,974.3 L574.4,974.3 L573.4,974.3 L572.5,974.4 L571.5,974.5 L570.6,974.6 L569.7,974.8 L568.8,975.0 L567.9,975.2 L567.0,975.5 L566.1,975.8 L565.2,976.1 L564.3,976.4 L563.4,976.8 L562.6,977.2 L561.8,977.7 L560.9,978.1 L560.1,978.6 L559.3,979.1 L558.6,979.6 L557.8,980.2 L557.1,980.8 L556.4,981.4 L555.7,982.0 L555.0,982.7 L554.3,983.3 L553.7,984.0 L553.0,984.7 L552.3,985.3 L551.7,986.0 L551.0,986.6 L550.3,987.3 L549.7,988.0 L549.0,988.6 L548.3,989.3 L547.7,990.0 L547.0,990.6 L546.4,991.3 L545.7,992.0 L545.0,992.6 L544.4,993.3 L543.7,993.9 L543.0,994.6 L542.4,995.3 L541.7,995.9 L541.0,996.6 L540.4,997.3 L539.7,997.9 L539.0,998.6 L538.4,999.3 L537.7,999.9 L537.1,1000.6 L536.4,1001.2 L535.7,1001.9 L535.1,1002.6 L534.4,1003.2 L533.7,1003.9 L533.1,1004.6 L532.4,1005.2 L531.7,1005.9 L531.1,1006.6 L530.4,1007.2 L529.7,1007.9 L529.1,1008.6 L528.4,1009.2 L527.7,1009.9 L527.1,1010.5 L526.4,1011.2 L525.8,1011.9 L525.1,1012.5 L524.4,1013.2 L523.8,1013.9 L523.1,1014.5 L522.4,1015.2 L521.8,1015.9 L521.1,1016.5 L520.4,1017.2 L519.8,1017.8 L519.1,1018.5 L518.4,1019.2 L517.7,1019.8 L517.0,1020.4 L516.3,1021.0 L515.5,1021.5 L514.8,1022.1 L514.0,1022.6 L513.2,1023.1 L512.3,1023.5 L511.5,1024.0 L510.7,1024.4 L509.8,1024.7 L508.9,1025.1 L508.0,1025.4 L507.1,1025.7 L506.2,1025.9 L505.3,1026.2 L504.4,1026.4 L503.5,1026.5 L502.6,1026.7 L501.6,1026.8 L500.7,1026.8 L499.7,1026.9 L498.8,1026.9 L497.9,1026.9 L496.9,1026.9 L496.0,1026.9 L495.1,1026.9 L494.1,1026.9 L493.2,1026.9 L492.2,1026.9 L491.3,1026.9 L490.4,1026.9 L489.4,1026.9 L488.5,1026.9 L487.5,1026.9 L486.6,1026.9 L485.7,1026.9 L484.7,1026.9 L483.8,1026.9 L482.8,1026.9 L481.9,1026.9 L481.0,1026.9 L480.0,1026.9 L479.1,1026.9 L478.2,1026.9 L477.2,1026.9 L476.3,1026.9 L475.3,1026.9 L474.4,1026.9 L473.5,1026.9 L472.5,1026.9 L471.6,1026.9 L470.6,1026.9 L469.7,1026.9 L468.8,1026.9 L467.8,1026.9 L466.9,1026.9 L465.9,1026.9 L465.0,1026.9 L464.1,1026.9 L463.1,1026.9 L462.2,1026.9 L461.2,1026.9 L460.3,1026.9 L459.4,1026.9 L458.4,1026.9 L457.5,1026.9 L456.6,1026.9 L455.6,1026.9 L454.7,1026.9 L453.7,1026.9 L452.8,1026.9 L451.9,1026.9 L450.9,1026.9 L450.0,1026.9 L449.0,1026.9 L448.1,1026.9 L447.2,1026.9 L446.2,1026.9 L445.3,1026.9 L444.3,1026.9 L443.4,1026.9 L442.5,1026.9 L441.5,1026.9 L440.6,1026.9 L439.6,1026.9 L438.7,1026.9 L437.8,1026.9 L436.8,1026.9 L435.9,1026.9 L435.0,1026.9 L434.0,1026.9 L433.1,1026.9 L432.1,1026.9 L431.2,1026.9 L430.3,1026.9 L429.3,1026.9 L428.4,1026.9 L427.4,1026.9 L426.5,1026.9 L425.6,1026.9 L424.6,1026.9 L423.7,1026.9 L422.7,1026.9 L421.8,1026.9 L420.9,1026.9 L419.9,1026.9 L419.0,1026.9 L418.1,1026.9 L417.1,1026.9 L416.2,1026.9 L415.2,1026.9 L414.3,1026.9 L413.4,1026.9 L412.4,1026.9 L411.5,1026.9 L410.5,1026.9 L409.6,1026.9 L408.7,1026.9 L407.7,1026.9 L406.8,1026.9 L405.8,1026.9 L404.9,1026.9 L404.0,1026.9 L403.0,1026.9 L402.1,1026.9 L401.1,1026.9 L400.2,1026.9 L399.3,1026.9 L398.3,1026.9 L397.4,1026.9 L396.5,1026.9 L395.5,1026.9 L394.6,1026.9 L393.6,1026.9 L392.7,1026.9 L391.8,1026.9 L390.8,1026.9 L389.9,1026.9 L388.9,1026.9 L388.0,1026.9 L387.1,1026.9 L386.1,1026.9 L385.2,1026.9 L384.2,1026.9 L383.3,1026.9 L382.4,1026.9 L381.4,1026.9 L380.5,1026.9 L379.5,1026.9 L378.6,1026.9 L377.7,1026.9 L376.7,1026.9 L375.8,1026.9 L374.9,1026.9 L373.9,1026.9 L373.0,1026.9 L372.0,1026.9 L371.1,1026.9 L370.2,1026.9 L369.2,1026.9 L368.3,1026.9 L367.3,1026.9 L366.4,1026.9 L365.5,1026.9 L364.5,1026.9 L363.6,1026.9 L362.6,1026.9 L361.7,1026.9 L360.8,1026.9 L359.8,1026.9 L358.9,1026.9 L357.9,1026.9 L357.0,1026.9 L356.1,1026.9 L355.1,1026.9 L354.2,1026.9 L353.3,1026.9 L352.3,1026.9 L351.4,1026.9 L350.4,1026.9 L349.5,1026.9 L348.6,1026.9 L347.6,1026.9 L346.7,1026.9 L345.7,1026.9 L344.8,1026.9 L343.9,1026.9 L342.9,1026.9 L342.0,1026.9 L341.0,1026.9 L340.1,1026.9 L339.2,1026.9 L338.2,1026.9 L337.3,1026.9 L336.4,1026.9 L335.4,1026.9 L334.5,1026.9 L333.5,1026.9 L332.6,1026.9 L331.7,1026.9 L330.7,1026.9 L329.8,1026.9 L328.8,1026.9 L327.9,1026.9 L327.0,1026.9 L326.0,1026.9 L325.1,1026.9 L324.1,1026.9 L323.2,1026.9 L322.3,1026.9 L321.3,1026.9 L320.4,1026.9 L319.4,1026.9 L318.5,1026.9 L317.6,1026.9 L316.6,1026.9 L315.7,1026.9 L314.8,1026.9 L313.8,1026.9 L312.9,1026.9 L311.9,1026.9 L311.0,1026.9 L310.1,1026.9 L309.1,1026.9 L308.2,1026.9 L307.2,1026.9 L306.3,1026.9 L305.4,1026.9 L304.4,1026.9 L303.5,1026.9 L302.5,1026.9 L301.6,1026.9 L300.7,1026.9 L299.7,1026.9 L298.8,1026.9 L297.8,1026.9 L296.9,1026.9 L296.0,1026.9 L295.0,1026.9 L294.1,1026.9 L293.2,1026.9 L292.2,1026.9 L291.3,1026.9 L290.3,1026.9 L289.4,1026.9 L288.5,1026.9 L287.5,1026.9 L286.6,1026.9 L285.6,1026.9 L284.7,1026.9 L283.8,1026.9 L282.8,1026.9 L281.9,1026.9 L280.9,1026.9 L280.0,1026.9 L279.1,1026.9 L278.1,1026.9 L277.2,1026.9 L276.3,1026.9 L275.3,1026.9 L274.4,1026.8 L273.4,1026.8 L272.5,1026.7 L271.6,1026.5 L270.7,1026.4 L269.7,1026.2 L268.8,1025.9 L267.9,1025.7 L267.0,1025.4 L266.1,1025.1 L265.3,1024.7 L264.4,1024.4 L263.6,1024.0 L262.7,1023.5 L261.9,1023.1 L261.1,1022.6 L260.3,1022.1 L259.5,1021.5 L258.8,1021.0 L258.0,1020.4 L257.3,1019.8 L256.6,1019.2 L256.0,1018.5 L255.3,1017.8 L254.6,1017.2 L254.0,1016.5 L253.3,1015.9 L252.6,1015.2 L252.0,1014.5 L251.3,1013.9 L250.6,1013.2 L250.0,1012.5 L249.3,1011.9 L248.6,1011.2 L248.0,1010.5 L247.3,1009.9 L246.6,1009.2 L246.0,1008.6 L245.3,1007.9 L244.7,1007.2 L244.0,1006.6 L243.3,1005.9 L242.7,1005.2 L242.0,1004.6 L241.3,1003.9 L240.7,1003.2 L240.0,1002.6 L239.3,1001.9 L238.7,1001.2 L238.0,1000.6 L237.3,999.9 L236.7,999.3 L236.0,998.6 L235.4,997.9 L234.7,997.3 L234.0,996.6 L233.4,995.9 L232.7,995.3 L232.0,994.6 L231.4,993.9 L230.7,993.3 L230.0,992.6 L229.4,992.0 L228.7,991.3 L228.0,990.6 L227.4,990.0 L226.7,989.3 L226.0,988.6 L225.4,988.0 L224.7,987.3 L224.1,986.6 L223.4,986.0 L222.7,985.3 L222.1,984.7 L221.4,984.0 L220.7,983.3 L220.1,982.7 L219.4,982.0 L218.7,981.4 L218.0,980.8 L217.2,980.2 L216.5,979.6 L215.7,979.1 L214.9,978.6 L214.1,978.1 L213.3,977.7 L212.5,977.2 L211.6,976.8 L210.8,976.4 L209.9,976.1 L209.0,975.8 L208.1,975.5 L207.2,975.2 L206.3,975.0 L205.4,974.8 L204.4,974.6 L203.5,974.5 L202.6,974.4 L201.6,974.3 L200.7,974.3 L199.8,974.3 L198.8,974.3 L197.9,974.3 L197.0,974.3 L196.0,974.3 L195.1,974.3 L194.1,974.3 L193.2,974.3 L192.3,974.3 L191.3,974.3 L190.4,974.3 L189.4,974.3 L188.5,974.3 L187.6,974.3 L186.6,974.3 L185.7,974.3 L184.7,974.3 L183.8,974.3 L182.9,974.3 L181.9,974.3 L181.0,974.3 L180.0,974.3 L179.1,974.3 L178.2,974.3 L177.2,974.3 L176.3,974.3 L175.4,974.3 L174.4,974.3 L173.5,974.3 L172.5,974.3 L171.6,974.3 L170.7,974.3 L169.7,974.3 L168.8,974.3 L167.8,974.3 L166.9,974.3 L166.0,974.3 L165.0,974.3 L164.1,974.3 L163.1,974.3 L162.2,974.3 L161.3,974.3 L160.3,974.3 L159.4,974.3 L158.4,974.3 L157.5,974.3 L156.6,974.3 L155.6,974.3 L154.7,974.3 L153.8,974.3 L152.8,974.3 L151.9,974.3 L150.9,974.3 L150.0,974.3 L149.1,974.3 L148.1,974.3 L147.2,974.3 L146.2,974.3 L145.3,974.3 L144.4,974.3 L143.4,974.3 L142.5,974.3 L141.5,974.3 L140.6,974.3 L139.7,974.3 L138.7,974.3 L137.8,974.3 L136.8,974.3 L135.9,974.3 L135.0,974.3 L134.0,974.3 L133.1,974.3 L132.2,974.3 L131.2,974.3 L130.3,974.3 L129.3,974.3 L128.4,974.3 L127.5,974.3 L126.5,974.3 L125.6,974.3"/>
<circle class="f1 ring" cx="575.3" cy="974.3" r="4.5"/>
<text class="lbl" x="561.3" y="965.3">1</text>
<circle class="f1 ring" cx="519.1" cy="1018.5" r="4.5"/>
<text class="lbl" x="527.1" y="1034.5">2</text>
<circle class="f1 ring" cx="276.3" cy="1026.9" r="4.5"/>
<text class="lbl" x="284.3" y="1017.9">3</text>
<circle class="f1 ring" cx="220.1" cy="982.7" r="4.5"/>
<text class="lbl" x="228.1" y="973.7">4</text>
<circle class="f1 ring" cx="650.4" cy="974.3" r="6.5"/>
<rect class="f1 ring" x="120.1" y="968.8" width="11" height="11"/>
<line class="axis" x1="519.4" y1="1110.5" x2="676.0" y2="1110.5" stroke-width="2"/>
<line class="axis" x1="519.4" y1="1107.5" x2="519.4" y2="1113.5"/>
<line class="axis" x1="676.0" y1="1107.5" x2="676.0" y2="1113.5"/>
<text class="tick" x="597.7" y="1104.5" text-anchor="middle">500 m</text>
<text class="cap" x="88" y="1146">플랫폼은 32.000°N 126.000°E 에 정지 — 두 표적 모두 플랫폼 북쪽이라 그림에서는 뺐다.</text>
</svg>